<svg width="430" height="164" viewBox="0 0 430.45 163.73" fill="none" xmlns="http://www.w3.org/2000/svg" role="img" aria-label="Satya">
  <!-- Satya wordmark. Space Grotesk (OFL), outlined to vector paths (font-independent, renders on GitHub). -->
  <g transform="translate(13.745,114.671) scale(0.145296,-0.145296)" fill="#232B36">
    <g transform="translate(0.0,0)"><path d="M276.43731689453125 -14Q180.2244873046875 -14 118.18075561523438 28.0Q56.13702392578125 70 43.049560546875 149.66180419921875L154.06414794921875 178Q161.151611328125 141.4256591796875 178.351318359375 120.50729370117188Q195.551025390625 99.58892822265625 221.01312255859375 90.69534301757812Q246.4752197265625 81.8017578125 276.43731689453125 81.8017578125Q321.83673095703125 81.8017578125 344.1924133300781 98.08892822265625Q366.548095703125 114.3760986328125 366.548095703125 139.1253662109375Q366.548095703125 163.96209716796875 345.2798767089844 176.85568237304688Q324.01165771484375 189.749267578125 278.8746337890625 197.9241943359375L249.30029296875 203.18658447265625Q197.8250732421875 213.01165771484375 155.349853515625 230.4241943359375Q112.8746337890625 247.83673095703125 87.26821899414062 278.5743408203125Q61.66180419921875 309.31195068359375 61.66180419921875 357.69970703125Q61.66180419921875 430.73760986328125 115.26821899414062 469.9314880371094Q168.8746337890625 509.1253662109375 256.349853515625 509.1253662109375Q339.349853515625 509.1253662109375 393.9562683105469 472.0816345214844Q448.56268310546875 435.03790283203125 465.21282958984375 374.0758056640625L353.548095703125 340.1749267578125Q345.3731689453125 379.9241943359375 319.73614501953125 396.6239013671875Q294.09912109375 413.3236083984375 256.349853515625 413.3236083984375Q218.68804931640625 413.3236083984375 198.46356201171875 400.0801696777344Q178.23907470703125 386.83673095703125 178.23907470703125 363.1749267578125Q178.23907470703125 337.7755126953125 199.11370849609375 325.66326904296875Q219.98834228515625 313.551025390625 255.56268310546875 307.28863525390625L285.13702392578125 302.0262451171875Q340.61224365234375 292.201171875 385.6311950683594 275.78863525390625Q430.650146484375 259.3760986328125 456.88775634765625 229.09475708007812Q483.1253662109375 198.81341552734375 483.1253662109375 147.33819580078125Q483.1253662109375 70.1253662109375 427.0189514160156 28.06268310546875Q370.91253662109375 -14 276.43731689453125 -14Z"/></g>
    <g transform="translate(524.0,0)"><path d="M225.13702392578125 -14Q172.31195068359375 -14 130.35568237304688 4.41253662109375Q88.3994140625 22.8250732421875 63.943145751953125 58.193878173828125Q39.48687744140625 93.56268310546875 39.48687744140625 144.30029296875Q39.48687744140625 195.1253662109375 63.943145751953125 229.40670776367188Q88.3994140625 263.68804931640625 131.68075561523438 281.0568542480469Q174.96209716796875 298.4256591796875 230.43731689453125 298.4256591796875H370.11077880859375V327.38775634765625Q370.11077880859375 364.48687744140625 347.06121826171875 387.9052429199219Q324.01165771484375 411.3236083984375 274.5247802734375 411.3236083984375Q226.03790283203125 411.3236083984375 201.76968383789062 388.948974609375Q177.50146484375 366.5743408203125 169.9766845703125 330.91253662109375L59.049560546875 367.98834228515625Q71.049560546875 406.4256591796875 97.50582885742188 438.18804931640625Q123.96209716796875 469.950439453125 168.33090209960938 489.53790283203125Q212.69970703125 509.1253662109375 276.349853515625 509.1253662109375Q373.8250732421875 509.1253662109375 430.2565612792969 460.21282958984375Q486.68804931640625 411.30029296875 486.68804931640625 318.91253662109375V129.451904296875Q486.68804931640625 99.451904296875 514.6880493164062 99.451904296875H555.30029296875V0H473.049560546875Q436.5743408203125 0 413.09912109375 18.043731689453125Q389.6239013671875 36.08746337890625 389.6239013671875 66.26239013671875V67.78717041015625H371.41107177734375Q366.6239013671875 54.91253662109375 352.0553894042969 35.281341552734375Q337.48687744140625 15.650146484375 307.2244873046875 0.8250732421875Q276.96209716796875 -14 225.13702392578125 -14ZM245.56268310546875 83.8017578125Q300.66180419921875 83.8017578125 335.38629150390625 114.78863525390625Q370.11077880859375 145.7755126953125 370.11077880859375 197.9241943359375V208.09912109375H238.73760986328125Q202.250732421875 208.09912109375 180.98251342773438 192.44314575195312Q159.71429443359375 176.78717041015625 159.71429443359375 148.03790283203125Q159.71429443359375 119.28863525390625 181.98251342773438 101.54519653320312Q204.250732421875 83.8017578125 245.56268310546875 83.8017578125Z"/></g>
    <g transform="translate(1102.0,0)"><path d="M260.349853515625 0Q212.2244873046875 0 182.68658447265625 29.581634521484375Q153.148681640625 59.16326904296875 153.148681640625 108.851318359375V395.49853515625H26.349853515625V495.1253662109375H153.148681640625V651.5743408203125H273.3760986328125V495.1253662109375H412.349853515625V395.49853515625H273.3760986328125V129.6268310546875Q273.3760986328125 99.6268310546875 301.551025390625 99.6268310546875H399.1253662109375V0Z"/></g>
    <g transform="translate(1559.0,0)"><path d="M126.18658447265625 -200V-94.89794921875H397.41107177734375Q425.58599853515625 -94.89794921875 425.58599853515625 -64.89794921875V66.66180419921875H408.11077880859375Q399.76092529296875 49.049560546875 382.3673400878906 31.655975341796875Q364.9737548828125 14.26239013671875 335.4927062988281 3.043731689453125Q306.01165771484375 -8.1749267578125 260.3994140625 -8.1749267578125Q202.9241943359375 -8.1749267578125 159.33673095703125 17.931488037109375Q115.749267578125 44.03790283203125 91.53060913085938 90.7755126953125Q67.31195068359375 137.51312255859375 67.31195068359375 199.03790283203125V495.1253662109375H187.53936767578125V208.51312255859375Q187.53936767578125 150.50146484375 216.13265991210938 121.88922119140625Q244.7259521484375 93.2769775390625 297.1253662109375 93.2769775390625Q356.61224365234375 93.2769775390625 390.18658447265625 132.69534301757812Q423.76092529296875 172.11370849609375 423.76092529296875 243.8250732421875V495.1253662109375H543.9883422851562V-91.148681640625Q543.9883422851562 -140.83673095703125 514.9067077636719 -170.41836547851562Q485.8250732421875 -200 436.78717041015625 -200Z"/></g>
    <g transform="translate(2175.0,0)"><path d="M225.13702392578125 -14Q172.31195068359375 -14 130.35568237304688 4.41253662109375Q88.3994140625 22.8250732421875 63.943145751953125 58.193878173828125Q39.48687744140625 93.56268310546875 39.48687744140625 144.30029296875Q39.48687744140625 195.1253662109375 63.943145751953125 229.40670776367188Q88.3994140625 263.68804931640625 131.68075561523438 281.0568542480469Q174.96209716796875 298.4256591796875 230.43731689453125 298.4256591796875H370.11077880859375V327.38775634765625Q370.11077880859375 364.48687744140625 347.06121826171875 387.9052429199219Q324.01165771484375 411.3236083984375 274.5247802734375 411.3236083984375Q226.03790283203125 411.3236083984375 201.76968383789062 388.948974609375Q177.50146484375 366.5743408203125 169.9766845703125 330.91253662109375L59.049560546875 367.98834228515625Q71.049560546875 406.4256591796875 97.50582885742188 438.18804931640625Q123.96209716796875 469.950439453125 168.33090209960938 489.53790283203125Q212.69970703125 509.1253662109375 276.349853515625 509.1253662109375Q373.8250732421875 509.1253662109375 430.2565612792969 460.21282958984375Q486.68804931640625 411.30029296875 486.68804931640625 318.91253662109375V129.451904296875Q486.68804931640625 99.451904296875 514.6880493164062 99.451904296875H555.30029296875V0H473.049560546875Q436.5743408203125 0 413.09912109375 18.043731689453125Q389.6239013671875 36.08746337890625 389.6239013671875 66.26239013671875V67.78717041015625H371.41107177734375Q366.6239013671875 54.91253662109375 352.0553894042969 35.281341552734375Q337.48687744140625 15.650146484375 307.2244873046875 0.8250732421875Q276.96209716796875 -14 225.13702392578125 -14ZM245.56268310546875 83.8017578125Q300.66180419921875 83.8017578125 335.38629150390625 114.78863525390625Q370.11077880859375 145.7755126953125 370.11077880859375 197.9241943359375V208.09912109375H238.73760986328125Q202.250732421875 208.09912109375 180.98251342773438 192.44314575195312Q159.71429443359375 176.78717041015625 159.71429443359375 148.03790283203125Q159.71429443359375 119.28863525390625 181.98251342773438 101.54519653320312Q204.250732421875 83.8017578125 245.56268310546875 83.8017578125Z"/></g>
  </g>
</svg>
